<svg width="48" height="48" viewBox="0 0 48 48" fill="none" xmlns="http://www.w3.org/2000/svg">
<path d="M29.5996 17.925C29.7639 17.925 29.8659 17.9735 29.9463 18.0539C30.0265 18.1342 30.0751 18.2357 30.0752 18.3996C30.0752 18.5638 30.0266 18.6659 29.9463 18.7463L24.6924 24.0002L25.0459 24.3537L29.9463 29.2531C30.0267 29.3335 30.0752 29.4356 30.0752 29.5998C30.0752 29.7641 30.0267 29.8661 29.9463 29.9465C29.8659 30.0269 29.7639 30.0754 29.5996 30.0754C29.4355 30.0753 29.3333 30.0268 29.2529 29.9465L24.3535 25.0461L24 24.6926L18.7461 29.9465C18.6657 30.0268 18.5636 30.0754 18.3994 30.0754C18.2355 30.0753 18.134 30.0267 18.0537 29.9465C17.9733 29.8661 17.9248 29.7641 17.9248 29.5998C17.9248 29.4356 17.9733 29.3335 18.0537 29.2531L23.3066 24.0002L22.9531 23.6467L18.0537 18.7463C17.9733 18.6659 17.9248 18.5639 17.9248 18.3996C17.9249 18.2356 17.9734 18.1342 18.0537 18.0539C18.134 17.9736 18.2354 17.9251 18.3994 17.925C18.5637 17.925 18.6657 17.9735 18.7461 18.0539L23.6465 22.9533L24 23.3068L29.2529 18.0539C29.3333 17.9735 29.4355 17.925 29.5996 17.925Z" fill="black" stroke="black"/>
</svg>
